<svg width="86" height="20" viewBox="0 0 86 20" fill="none" xmlns="http://www.w3.org/2000/svg">
<g clip-path="url(#clip0_636_15977)">
<path fill-rule="evenodd" clip-rule="evenodd" d="M0.0626799 8.10793C0.612413 8.21391 11.4758 8.15335 12.2367 8.14389C16.0601 8.09658 17.7074 3.7476 15.2041 1.21353C13.8897 -0.120685 12.4935 0.0155748 10.2793 0.0155748C8.25732 0.0155748 6.18964 -0.0260603 4.17522 0.0155748C2.36623 0.0515325 1.02709 1.04321 0.425999 2.38689C-0.156071 3.6965 0.0246362 6.4482 0.0702888 8.10793" fill="#273B4A"/>
<path fill-rule="evenodd" clip-rule="evenodd" d="M1.75337 11.569C1.70391 13.804 1.42809 15.9955 2.72539 17.2824C3.98654 18.5334 6.14933 18.7529 7.57978 17.2824C8.04636 16.8098 8.36287 16.2111 8.4899 15.5608C8.61693 14.9105 8.54886 14.2374 8.29418 13.6253C8.03949 13.0132 7.60944 12.4892 7.05758 12.1185C6.50573 11.7478 5.85645 11.5468 5.19063 11.5406C4.31181 11.5084 2.57511 11.4611 1.75337 11.5633V11.569ZM0.0680245 9.83354C0.0490026 11.5217 0.0680245 13.2154 0.0680245 14.9036C0.0569342 15.5758 0.183426 16.2433 0.439805 16.8653C0.696183 17.4874 1.07709 18.0511 1.55934 18.522C2.15371 19.1083 2.88383 19.5401 3.68541 19.7796C4.487 20.0191 5.33546 20.0589 6.15612 19.8954C6.97678 19.7319 7.74446 19.3702 8.39157 18.8421C9.03869 18.3141 9.54539 17.6358 9.86708 16.8671C10.1888 16.0984 10.3156 15.2628 10.2363 14.4338C10.1571 13.6049 9.87422 12.808 9.41265 12.1134C8.95107 11.4188 8.32494 10.8478 7.58937 10.4505C6.8538 10.0533 6.03135 9.84207 5.19443 9.83544C3.50148 9.81083 1.76098 9.83354 0.0680245 9.83922V9.83354Z" fill="#D6AA1B"/>
<path d="M83.3031 16.1768C83.3031 17.9482 86.0004 17.9482 86.0004 16.1768C86.0004 14.4054 83.3031 14.4054 83.3031 16.1768ZM79.0859 4.32214V17.352H81.3533V4.32214H79.0859ZM74.8155 4.32214V17.352H77.081V4.32214H74.8155ZM65.8752 11.684C66.2138 10.4917 67.2238 9.89557 68.4622 9.89557C69.7728 9.89557 70.7105 10.4917 70.8589 11.684H65.8752ZM73.0521 13.567C73.4079 9.78202 71.4771 7.88952 68.3861 7.88952C65.3882 7.88952 63.4784 9.90314 63.4784 12.6984C63.4784 15.6431 65.3692 17.6019 68.5554 17.6019C69.9611 17.6019 71.5532 17.1174 72.5271 16.1106L71.0701 14.6666C70.5451 15.2078 69.4399 15.5239 68.5972 15.5239C66.986 15.5239 65.9931 14.7044 65.8447 13.567H73.0521ZM61.9966 9.11208C60.9295 8.17907 59.8433 7.90087 58.3996 7.90087C56.7142 7.90087 54.502 8.64652 54.502 10.7718C54.502 12.8536 56.583 13.4932 58.3254 13.6238C59.636 13.6976 60.161 13.9588 60.161 14.5928C60.161 15.2627 59.3564 15.7112 58.4928 15.6923C57.4637 15.6734 55.9648 15.1246 55.3085 14.4054L54.1843 16.0273C55.533 17.4259 56.9938 17.6681 58.4566 17.6681C61.0988 17.6681 62.4284 16.2695 62.4284 14.6401C62.4284 12.1988 60.2181 11.8013 58.4756 11.6953C57.2944 11.6215 56.7504 11.2847 56.7504 10.6885C56.7504 10.0924 57.3514 9.77635 58.4376 9.77635C59.3183 9.77635 60.0678 9.98073 60.7202 10.5958L61.9966 9.11208ZM48.3008 10.0432C49.8378 10.0432 50.8117 11.3869 50.8117 12.7665C50.8117 14.1461 49.969 15.469 48.3008 15.469C46.6326 15.469 45.7899 14.1632 45.7899 12.7665C45.7899 11.3698 46.6535 10.0432 48.3027 10.0432H48.3008ZM48.2818 7.97468C45.341 7.97468 43.5054 10.1378 43.5054 12.7665C43.5054 15.3952 45.303 17.5564 48.3008 17.5564C51.2987 17.5564 53.1172 15.4122 53.1172 12.7665C53.1172 10.1208 51.2264 7.97468 48.2837 7.97468H48.2818ZM41.9665 17.352V12.5224C41.9665 9.63441 40.2241 8.01253 38.0499 8.01253C36.8896 8.01253 35.9575 8.47809 35.0064 9.39217L34.8561 8.14311H32.836V17.352H35.1034V12.6492C35.1034 11.2525 36.0545 10.0773 37.464 10.0773C38.9249 10.0773 39.6934 11.1408 39.6934 12.5375V17.3483L41.9665 17.352ZM25.4175 8.16204V7.67756C25.4175 5.90617 27.5917 5.36491 29.6156 6.59504L30.4583 4.89179C27.2436 3.01631 23.1348 4.20859 23.1348 7.67756V8.16204H21.4229V10.1H23.1348V17.352H25.4175V10.1H27.9854V17.352H30.268V8.16204H25.4175Z" fill="#273B4A"/>
</g>
<defs>
<clipPath id="clip0_636_15977">
<rect width="86" height="20" fill="white"/>
</clipPath>
</defs>
</svg>
