<svg width="18" height="18" viewBox="0 0 18 18" fill="none" xmlns="http://www.w3.org/2000/svg">
<path id="Subtract" fill-rule="evenodd" clip-rule="evenodd" d="M2.61977 17.147L2.50059 17.2662C2.24839 17.5184 1.91115 17.6523 1.56811 17.6524C1.39824 17.6524 1.22699 17.6196 1.06384 17.552C0.571169 17.3479 0.250016 16.8671 0.250016 16.3339L0.250346 9.02975C0.22978 6.69895 1.12613 4.49868 2.77487 2.83405C4.42533 1.16771 6.61875 0.25 8.95119 0.25C11.2996 0.25 13.4962 1.16191 15.1362 2.81783C16.7811 4.47857 17.6745 6.68702 17.652 9.03634C17.6297 11.351 16.7093 13.5197 15.0601 15.143C13.4159 16.7612 11.2361 17.6523 8.92185 17.6523H8.91342C7.55254 17.6523 6.25132 17.3483 5.04674 16.7485C4.23674 16.3453 3.26135 16.5054 2.61977 17.147ZM6.5 6.125C6.29289 6.125 6.125 6.29289 6.125 6.5C6.125 6.70711 6.29289 6.875 6.5 6.875H11.5C11.7071 6.875 11.875 6.70711 11.875 6.5C11.875 6.29289 11.7071 6.125 11.5 6.125H6.5ZM6.5 8.625C6.29289 8.625 6.125 8.79289 6.125 9C6.125 9.20711 6.29289 9.375 6.5 9.375H11.5C11.7071 9.375 11.875 9.20711 11.875 9C11.875 8.79289 11.7071 8.625 11.5 8.625H6.5ZM6.125 11.5C6.125 11.2929 6.29289 11.125 6.5 11.125H11.5C11.7071 11.125 11.875 11.2929 11.875 11.5C11.875 11.7071 11.7071 11.875 11.5 11.875H6.5C6.29289 11.875 6.125 11.7071 6.125 11.5Z" fill="#D6AA1B"/>
</svg>
