<svg width="79" height="79" viewBox="0 0 79 79" fill="none" xmlns="http://www.w3.org/2000/svg">
<g id="store 1" clip-path="url(#clip0_6698_2094)">
<g id="Group">
<g id="Group_2">
<path id="Vector" d="M6.7281 0C6.20988 0 5.75968 0.350942 5.63325 0.853301L0.338737 21.8874C-1.45311 29.0065 4.10018 36.1118 11.4217 36.1096C17.7234 36.1096 22.8503 30.9817 22.8503 24.6784V0L6.7281 0Z" fill="#D6AA1B"/>
<path id="Vector_2" d="M28.7207 0V25.2334C28.7207 31.2305 33.6015 36.1096 39.601 36.1096C45.6003 36.1096 50.4811 31.2305 50.4811 25.2334V0L28.7207 0Z" fill="#D6AA1B"/>
<path id="Vector_3" d="M56.3516 0V24.7795C56.3516 31.0269 61.4332 36.1098 67.6793 36.1098C74.9302 36.1098 80.4392 29.0641 78.6644 22.0132L73.3383 0.852964C73.2119 0.350943 72.7617 0 72.2435 0L56.3516 0Z" fill="#D6AA1B"/>
</g>
<g id="Group_3">
<path id="Vector_4" d="M31.5771 57.1143H47.4224V79.0009H31.5771V57.1143Z" fill="#D6AA1B"/>
<path id="Vector_5" d="M67.6798 41.9786C61.8164 41.9786 56.6291 39.0296 53.5231 34.5364C50.5147 39.0212 45.3971 41.9786 39.6013 41.9786C33.7902 41.9786 28.661 39.0058 25.6556 34.501C22.5307 39.0161 17.316 41.9786 11.4216 41.9786C8.99724 41.9786 6.64092 41.4798 4.47754 40.5325V77.8721C4.47754 78.4943 4.98412 79.0007 5.60649 79.0007H25.7067V54.1796C25.7067 52.5591 27.0209 51.2453 28.642 51.2453H50.3581C51.9793 51.2453 53.2934 52.5591 53.2934 54.1796V79.0005H73.3919C74.0145 79.0005 74.5209 78.4943 74.5209 77.8719V40.5674C72.3867 41.4922 70.0658 41.9786 67.6798 41.9786Z" fill="#D6AA1B"/>
</g>
</g>
</g>
<defs>
<clipPath id="clip0_6698_2094">
<rect width="79" height="79" fill="white"/>
</clipPath>
</defs>
</svg>
